<svg width="60" height="60" viewBox="0 0 60 60" fill="none" xmlns="http://www.w3.org/2000/svg">
<path d="M15.1088 6.68984H37.7708V2.29167C37.7708 1.65973 38.0309 1.088 38.4505 0.6736C38.87 0.259247 39.4513 0.00231111 40.0911 0.00231111H42.1536C42.7934 0.00231111 43.3723 0.259253 43.7919 0.6736C44.2114 1.08795 44.4716 1.66204 44.4716 2.29167V6.68984H50.5604C51.2002 6.68984 51.7791 6.94678 52.1987 7.36113C52.6183 7.77547 52.8784 8.34957 52.8784 8.9792V33.6992C52.8784 34.0858 52.5596 34.4006 52.1682 34.4006C51.7768 34.4006 51.458 34.0858 51.458 33.6992V15.4817H1.42105V49.9398C1.42105 50.1829 1.52183 50.4051 1.68589 50.5648C1.84761 50.7245 2.07261 50.8241 2.31871 50.8241H34.1211C34.5125 50.8241 34.8313 51.1389 34.8313 51.5255C34.8313 51.9143 34.5125 52.2268 34.1211 52.2268H2.31871C1.67887 52.2268 1.09999 51.9699 0.680413 51.5556C0.260881 51.1412 0.000732422 50.5671 0.000732422 49.9375V8.97689C0.000732422 8.34726 0.260886 7.77322 0.680413 7.35882C1.09994 6.94446 1.68121 6.68753 2.31871 6.68753H8.40751V2.28936C8.40751 1.65742 8.66767 1.08569 9.08719 0.671289C9.50673 0.256936 10.088 0 10.7255 0H12.7903C13.4278 0 14.0091 0.256942 14.4286 0.671289C14.8482 1.08564 15.1083 1.65973 15.1083 2.28936L15.1088 6.68984ZM47.1152 38.2638V46.3029C46.7496 46.5436 46.5082 46.9534 46.5082 47.4209C46.5082 48.1617 47.1152 48.7612 47.8652 48.7612C47.9589 48.7612 48.048 48.7519 48.1347 48.7334L51.8004 52.3538C52.091 52.6408 52.5691 52.6408 52.8621 52.3538C53.1527 52.0668 53.1527 51.5946 52.8621 51.3075L49.1964 47.6871C49.2152 47.6015 49.2245 47.5112 49.2245 47.4209C49.2245 46.9533 48.9831 46.5436 48.6175 46.3029V38.2638C48.6175 37.8564 48.28 37.523 47.8675 37.523C47.455 37.523 47.1175 37.8564 47.1175 38.2638H47.1152ZM47.6121 34.7962C54.4533 34.7962 59.9991 40.273 59.9991 47.0302C59.9991 53.7874 54.4537 59.2643 47.6121 59.2643C40.7709 59.2643 35.2251 53.7874 35.2251 47.0302C35.2251 40.273 40.7704 34.7962 47.6121 34.7962ZM37.7709 8.09689H15.1089V10.2913C15.1089 10.9233 14.8487 11.495 14.4292 11.9117C14.0096 12.3261 13.4284 12.583 12.7909 12.583H10.726C10.0885 12.583 9.50732 12.3261 9.08774 11.9117C8.66821 11.4974 8.40806 10.9233 8.40806 10.2913V8.09689H2.31926C2.07316 8.09689 1.84816 8.19643 1.68644 8.35847C1.52472 8.51819 1.42159 8.74041 1.42159 8.98347V14.0807H51.4586V8.98347C51.4586 8.74042 51.3578 8.51819 51.1961 8.35847C51.0344 8.19874 50.8094 8.09689 50.5633 8.09689H44.4745V10.2913C44.4745 10.9233 44.2143 11.495 43.7948 11.9117C43.3753 12.3261 42.794 12.583 42.1565 12.583H40.094C39.4542 12.583 38.8753 12.3261 38.4534 11.9117C38.0338 11.4974 37.7737 10.9233 37.7737 10.2913V8.09689H37.7709ZM42.1537 1.40948H40.0912C39.8451 1.40948 39.6201 1.50902 39.4584 1.67106C39.2966 1.83078 39.1959 2.053 39.1959 2.29607V10.2913C39.1959 10.5344 39.2966 10.7566 39.4584 10.9163C39.6201 11.0761 39.8451 11.1756 40.0912 11.1756H42.1537C42.3998 11.1756 42.6248 11.0761 42.7865 10.9163C42.9482 10.7566 43.049 10.5344 43.049 10.2913V2.29607C43.049 2.05301 42.9482 1.83079 42.7865 1.67106C42.6248 1.51134 42.3998 1.40948 42.1537 1.40948ZM7.01168 16.8773H11.8257C12.4656 16.8773 13.0444 17.1343 13.4664 17.5486C13.8859 17.963 14.146 18.5371 14.146 19.1667V23.9236C14.146 24.5556 13.8859 25.1273 13.4664 25.5417C13.0468 25.956 12.4656 26.213 11.8257 26.213H7.01168C6.37184 26.213 5.79296 25.956 5.37104 25.5417C4.95151 25.1273 4.69136 24.5532 4.69136 23.9236V19.1667C4.69136 18.5371 4.95151 17.963 5.37104 17.5486L5.41791 17.507C5.8351 17.1181 6.39525 16.875 7.01163 16.875L7.01168 16.8773ZM11.8257 18.2824H7.01168C6.77731 18.2824 6.56402 18.3727 6.40466 18.5162L6.37888 18.544C6.21716 18.7037 6.11638 18.9259 6.11638 19.169V23.9259C6.11638 24.169 6.21716 24.3912 6.37888 24.5509C6.5406 24.7107 6.7656 24.8102 7.0117 24.8102H11.8257C12.0718 24.8102 12.2968 24.7107 12.4586 24.5509C12.6203 24.3912 12.7211 24.169 12.7211 23.9259V19.169C12.7211 18.926 12.6203 18.706 12.4586 18.544C12.2968 18.3843 12.0718 18.2824 11.8257 18.2824ZM7.01168 40.206H11.8257C12.4632 40.206 13.0421 40.4629 13.464 40.8796H13.4664C13.8859 41.2939 14.146 41.868 14.146 42.4977V47.2546C14.146 47.8865 13.8859 48.4583 13.4664 48.8727C13.0468 49.287 12.4656 49.5439 11.8257 49.5439H7.01168C6.37184 49.5439 5.79296 49.287 5.37104 48.8727C4.95151 48.4583 4.69136 47.8842 4.69136 47.2546V42.4977C4.69136 41.8657 4.95152 41.294 5.37104 40.8796C5.79057 40.4652 6.37184 40.2083 7.01168 40.2083L7.01168 40.206ZM11.8257 41.6111H7.01168C6.76558 41.6111 6.54058 41.7106 6.37886 41.8703C6.21714 42.0301 6.11636 42.2523 6.11636 42.4954V47.2523C6.11636 47.4953 6.21714 47.7176 6.37886 47.8773C6.54058 48.037 6.76558 48.1389 7.01168 48.1389H11.8257C12.0718 48.1389 12.2968 48.0393 12.4585 47.8773C12.6203 47.7176 12.721 47.4953 12.721 47.2523V42.4954C12.721 42.2523 12.6203 42.0301 12.4585 41.8703V41.868C12.2968 41.7083 12.0742 41.6111 11.8257 41.6111ZM24.0321 40.206H28.8485C29.486 40.206 30.0672 40.4629 30.4868 40.8773C30.9063 41.2916 31.1665 41.8657 31.1665 42.4954V47.2523C31.1665 47.8819 30.9063 48.4536 30.4868 48.868V48.8703C30.0673 49.2847 29.486 49.5416 28.8485 49.5416H24.0321C23.3923 49.5416 22.8134 49.2847 22.3938 48.8703C21.9743 48.456 21.7141 47.8819 21.7141 47.2523V42.4954C21.7141 41.8634 21.9743 41.2917 22.3938 40.8773C22.8134 40.4629 23.3946 40.206 24.0321 40.206ZM28.8485 41.6111H24.0321C23.786 41.6111 23.561 41.7106 23.3993 41.8703C23.2376 42.0301 23.1368 42.2523 23.1368 42.4954V47.2523C23.1368 47.4953 23.2376 47.7176 23.3993 47.8773C23.561 48.037 23.786 48.1389 24.0321 48.1389H28.8485C29.0946 48.1389 29.3173 48.0393 29.4813 47.8773V47.8796C29.643 47.7199 29.7438 47.4977 29.7438 47.2523V42.4954C29.7438 42.2523 29.643 42.0301 29.479 41.8703C29.3173 41.7106 29.0923 41.6111 28.8462 41.6111L28.8485 41.6111ZM7.0115 28.5415H11.8255C12.4654 28.5415 13.0443 28.7984 13.4662 29.2127C13.8857 29.6271 14.1459 30.2012 14.1459 30.8308V35.5877C14.1459 36.2151 13.8857 36.7891 13.4638 37.2035L13.4662 37.2058C13.0466 37.6202 12.4654 37.8771 11.8255 37.8771H7.0115C6.37166 37.8771 5.79278 37.6202 5.37086 37.2058C4.95133 36.7915 4.69118 36.2174 4.69118 35.5877V30.8308C4.69118 30.1989 4.95134 29.6271 5.37086 29.2127C5.79039 28.7983 6.37166 28.5415 7.0115 28.5415ZM11.8255 29.9466H7.0115C6.7654 29.9466 6.5404 30.0461 6.37868 30.2058C6.21696 30.3655 6.11618 30.5878 6.11618 30.8308V35.5877C6.11618 35.8308 6.21696 36.0507 6.37868 36.2127C6.5404 36.3725 6.7654 36.472 7.0115 36.472H11.8255C12.0716 36.472 12.2966 36.3725 12.4584 36.2127H12.4607C12.6224 36.053 12.7209 35.8331 12.7209 35.5877V30.8308C12.7209 30.5878 12.6201 30.3655 12.4584 30.2058C12.2966 30.0461 12.0716 29.9466 11.8255 29.9466ZM40.1569 35.509C40.1569 35.8956 39.8382 36.2104 39.4468 36.2104C39.0554 36.2104 38.7366 35.8956 38.7366 35.509V30.8308C38.7366 30.1989 38.9968 29.6271 39.4163 29.2127C39.8358 28.7984 40.4171 28.5415 41.0546 28.5415H45.871C46.5108 28.5415 47.0897 28.7984 47.5093 29.2127C47.9288 29.6271 48.189 30.2012 48.189 30.8308V32.9674C48.189 33.3563 47.8702 33.6711 47.4788 33.6711C47.0851 33.6711 46.7686 33.3563 46.7686 32.9674V30.8308C46.7686 30.5878 46.6679 30.3655 46.5038 30.2058C46.3421 30.0461 46.1171 29.9466 45.871 29.9466H41.0546C40.8085 29.9466 40.5835 30.0461 40.4218 30.2058C40.2601 30.3655 40.1593 30.5878 40.1593 30.8308V35.509H40.1569ZM24.0319 28.5413H28.8483C29.4858 28.5413 30.067 28.7983 30.4866 29.2126C30.9062 29.627 31.1663 30.2011 31.1663 30.8307V35.5876C31.1663 36.2172 30.9061 36.7913 30.4866 37.2057C30.0671 37.6201 29.4858 37.877 28.8483 37.877H24.0319C23.3921 37.877 22.8132 37.62 22.3936 37.2057C21.9741 36.7913 21.714 36.2172 21.714 35.5876V30.8307C21.714 30.1988 21.9741 29.627 22.3936 29.2126C22.8132 28.7982 23.3944 28.5413 24.0319 28.5413ZM28.8483 29.9464H24.0319C23.7858 29.9464 23.5608 30.046 23.3991 30.2057C23.2374 30.3654 23.1366 30.5876 23.1366 30.8307V35.5876C23.1366 35.8307 23.2374 36.0506 23.3991 36.2126C23.5608 36.3723 23.7858 36.4719 24.0319 36.4719H28.8483C29.0944 36.4719 29.3171 36.3723 29.4811 36.2126C29.6429 36.0529 29.746 35.8307 29.746 35.5876V30.8307C29.746 30.5876 29.6452 30.3654 29.4811 30.2057C29.3194 30.046 29.0944 29.9464 28.8483 29.9464ZM41.0547 16.8768H45.8711C46.5086 16.8768 47.0875 17.1337 47.5071 17.5481L47.5094 17.5504C47.9289 17.9648 48.1891 18.5389 48.1891 19.1662V23.9231C48.1891 24.5527 47.9289 25.1245 47.5094 25.5389V25.5412C47.0899 25.9555 46.5086 26.2125 45.8711 26.2125H41.0547C40.4149 26.2125 39.836 25.9555 39.4164 25.5412C38.9969 25.1268 38.7367 24.5527 38.7367 23.9231V19.1662C38.7367 18.5365 38.9969 17.9625 39.4164 17.5481L39.461 17.5064C39.8781 17.1175 40.4383 16.8745 41.0547 16.8745L41.0547 16.8768ZM45.8711 18.2819H41.0547C40.8204 18.2819 40.6071 18.3722 40.4477 18.5157L40.4196 18.5435C40.2579 18.7032 40.1571 18.9254 40.1571 19.1685V23.9254C40.1571 24.1685 40.2579 24.3907 40.4196 24.5504C40.5813 24.7101 40.8063 24.8097 41.0524 24.8097H45.8688C46.1149 24.8097 46.3399 24.7101 46.5016 24.5504H46.5039C46.6657 24.3907 46.7664 24.1685 46.7664 23.9231V19.1662C46.7664 18.9231 46.6657 18.7009 46.5039 18.5412C46.3422 18.3814 46.1172 18.2819 45.8688 18.2819L45.8711 18.2819ZM24.0341 16.8768H28.8505C29.488 16.8768 30.0669 17.1337 30.4864 17.5481L30.4888 17.5504C30.9083 17.9648 31.1685 18.5389 31.1685 19.1662V23.9231C31.1685 24.5527 30.9083 25.1245 30.4888 25.5389V25.5412C30.0693 25.9555 29.488 26.2125 28.8505 26.2125H24.0341C23.3943 26.2125 22.8154 25.9555 22.3958 25.5412C21.9763 25.1268 21.7161 24.5527 21.7161 23.9231V19.1662C21.7161 18.5365 21.9763 17.9625 22.3958 17.5481L22.4403 17.5064C22.8575 17.1175 23.4177 16.8745 24.0341 16.8745L24.0341 16.8768ZM28.8505 18.2819H24.0341C23.7997 18.2819 23.5864 18.3722 23.4271 18.5157L23.4013 18.5435C23.2396 18.7032 23.1388 18.9254 23.1388 19.1685V23.9254C23.1388 24.1685 23.2396 24.3907 23.4013 24.5504C23.563 24.7101 23.788 24.8097 24.0341 24.8097H28.8505C29.0966 24.8097 29.3192 24.7101 29.4833 24.5504C29.645 24.3907 29.7458 24.1685 29.7458 23.9231V19.1662C29.7458 18.9231 29.645 18.7009 29.4833 18.5412C29.3216 18.3814 29.0966 18.2819 28.8505 18.2819ZM12.7909 1.40901H10.726C10.4799 1.40901 10.2573 1.50855 10.0932 1.67058C9.9315 1.83031 9.82837 2.05253 9.82837 2.29559V10.2909C9.82837 10.5339 9.92916 10.7561 10.0932 10.9159C10.2549 11.0756 10.4799 11.1751 10.726 11.1751H12.7909C13.037 11.1751 13.262 11.0756 13.4237 10.9159C13.5854 10.7561 13.6862 10.5339 13.6862 10.2909V2.29559C13.6862 2.05253 13.5854 1.83031 13.4237 1.67058C13.262 1.51086 13.037 1.40901 12.7909 1.40901Z" fill="black"/>
</svg>
