<svg width="28" height="23" viewBox="0 0 28 23" fill="none" xmlns="http://www.w3.org/2000/svg">
<path d="M26.8734 2.11826H6.05401L5.55381 0.44424C5.51547 0.31596 5.43625 0.203389 5.32796 0.123326C5.21967 0.0432639 5.08813 3.05296e-06 4.95296 0H1.1266C0.960415 0 0.801037 0.065335 0.683527 0.181632C0.566017 0.297929 0.5 0.455662 0.5 0.620131C0.5 0.7846 0.566017 0.942333 0.683527 1.05863C0.801037 1.17493 0.960415 1.24026 1.1266 1.24026H4.48483L8.19977 13.6711H7.09308C6.36147 13.6744 5.66095 13.9643 5.1448 14.4775C4.62864 14.9906 4.33886 15.6852 4.33886 16.4093C4.33886 17.1333 4.62864 17.8279 5.1448 18.3411C5.66095 18.8542 6.36147 19.1442 7.09308 19.1475H7.48004C7.2465 19.5338 7.12066 19.9745 7.11536 20.4247C7.11006 20.8749 7.22549 21.3184 7.44987 21.71C7.67426 22.1016 7.99957 22.4274 8.39264 22.654C8.78571 22.8806 9.23248 23 9.68738 23C10.1423 23 10.589 22.8806 10.9821 22.654C11.3752 22.4274 11.7005 22.1016 11.9249 21.71C12.1493 21.3184 12.2647 20.8749 12.2594 20.4247C12.2541 19.9745 12.1283 19.5338 11.8947 19.1475H21.7478C21.4623 19.6205 21.3398 20.1725 21.3984 20.7204C21.4571 21.2683 21.6938 21.7826 22.0731 22.186C22.4524 22.5893 22.9537 22.86 23.5017 22.9572C24.0497 23.0545 24.6148 22.9731 25.112 22.7253C25.6093 22.4775 26.0119 22.0767 26.2593 21.5831C26.5067 21.0895 26.5855 20.5298 26.484 19.9881C26.3825 19.4463 26.106 18.9518 25.6962 18.5789C25.2864 18.2059 24.7653 17.9747 24.2113 17.9199C24.1697 17.9114 24.1272 17.9072 24.0847 17.9072H7.09308C6.69327 17.9048 6.31067 17.7459 6.02883 17.4652C5.74698 17.1846 5.58879 16.805 5.58879 16.4093C5.58879 16.0136 5.74698 15.634 6.02883 15.3533C6.31067 15.0727 6.69327 14.9138 7.09308 14.9113H9.03406C9.03549 14.9113 9.0368 14.9113 9.03822 14.9113H9.04289H24.9278C25.0761 14.9113 25.2196 14.8593 25.3328 14.7644C25.4459 14.6695 25.5214 14.538 25.5458 14.3932L27.4915 2.8402C27.5064 2.75136 27.5017 2.66036 27.4775 2.57354C27.4533 2.48671 27.4103 2.40613 27.3515 2.33742C27.2927 2.2687 27.2194 2.21349 27.1369 2.17562C27.0543 2.13775 26.9644 2.11814 26.8734 2.11814V2.11826ZM11.0062 20.4531C11.0062 20.7113 10.9288 20.9637 10.7839 21.1783C10.639 21.393 10.433 21.5603 10.192 21.6591C9.95095 21.7579 9.68575 21.7838 9.42989 21.7334C9.17403 21.683 8.939 21.5587 8.75454 21.3762C8.57008 21.1936 8.44445 20.961 8.39356 20.7078C8.34267 20.4546 8.36879 20.1921 8.46862 19.9536C8.56845 19.715 8.73751 19.5112 8.95442 19.3677C9.17132 19.2243 9.42634 19.1477 9.68721 19.1477C10.0369 19.1481 10.3722 19.2858 10.6194 19.5305C10.8667 19.7752 11.0058 20.107 11.0062 20.4531ZM25.2739 20.4531C25.2739 20.7113 25.1966 20.9637 25.0516 21.1783C24.9067 21.393 24.7007 21.5603 24.4597 21.6591C24.2187 21.7579 23.9535 21.7838 23.6976 21.7334C23.4417 21.683 23.2067 21.5587 23.0223 21.3761C22.8378 21.1936 22.7122 20.961 22.6613 20.7077C22.6104 20.4545 22.6365 20.1921 22.7364 19.9535C22.8362 19.715 23.0053 19.5111 23.2222 19.3677C23.4391 19.2243 23.6941 19.1477 23.955 19.1477C24.3047 19.1481 24.6399 19.2858 24.8872 19.5305C25.1345 19.7752 25.2736 20.107 25.2739 20.4531ZM24.3967 13.6711H9.50641L6.42467 3.35829H26.1337L24.3967 13.6711Z" fill="black"/>
</svg>
