<svg width="37" height="28" viewBox="0 0 37 28" fill="none" xmlns="http://www.w3.org/2000/svg">
<path fill-rule="evenodd" clip-rule="evenodd" d="M12.2424 1.18585C12.5673 0.911357 13.0507 0.911356 13.3756 1.18585L17.4518 4.62905V2.93578C17.4518 2.47211 17.8386 2.09623 18.3156 2.09623H22.2027C22.6798 2.09623 23.0665 2.47211 23.0665 2.93578V9.37174L24.8208 10.8536C25.0096 11.0131 25.118 11.2442 25.118 11.4873V26.6004C25.118 27.064 24.7313 27.4399 24.2542 27.4399H1.36379C0.886731 27.4399 0.5 27.064 0.5 26.6004V11.4873C0.5 11.2442 0.608397 11.0131 0.797164 10.8537L12.2424 1.18585ZM21.3389 7.91244V3.77532H19.1794V6.08836L21.3389 7.91244ZM12.809 2.93183L2.22758 11.87V25.7608H4.01631V17.9871C4.01631 17.5235 4.40304 17.1476 4.88008 17.1476H9.15563C9.6327 17.1476 10.0194 17.5235 10.0194 17.9871V25.7608H23.3904V11.8699L12.809 2.93183ZM8.29184 25.7608H5.74387V18.8267H8.29184V25.7608ZM35.9191 14.6362C35.9191 12.625 34.163 10.9703 32.0284 10.9703C29.8938 10.9703 28.1377 12.625 28.1377 14.6362C28.1377 16.6475 29.8938 18.3021 32.0284 18.3021C34.163 18.3021 35.9191 16.6475 35.9191 14.6362ZM29.9062 14.6362C29.9062 13.5185 30.8421 12.6366 32.0284 12.6366C33.2147 12.6366 34.1506 13.5185 34.1506 14.6362C34.1506 15.754 33.2147 16.6358 32.0284 16.6358C30.8421 16.6358 29.9062 15.754 29.9062 14.6362ZM29.2845 23.5344C29.2845 22.1392 30.4813 20.9746 32.0285 20.9746C33.5756 20.9746 34.7724 22.1392 34.7724 23.5344V25.7609H28.4207C27.9436 25.7609 27.5569 26.1368 27.5569 26.6004C27.5569 27.0641 27.9436 27.44 28.4207 27.44H35.6362C36.1133 27.44 36.5 27.0641 36.5 26.6004V23.5344C36.5 21.1631 34.4787 19.2955 32.0285 19.2955C29.5782 19.2955 27.5569 21.1631 27.5569 23.5344C27.5569 23.9981 27.9436 24.374 28.4207 24.374C28.8977 24.374 29.2845 23.9981 29.2845 23.5344ZM19.6153 17.1477C20.0924 17.1477 20.4791 17.5236 20.4791 17.9872V22.1428C20.4791 22.6064 20.0924 22.9823 19.6153 22.9823H12.6974C12.2203 22.9823 11.8336 22.6064 11.8336 22.1428V17.9872C11.8336 17.5236 12.2203 17.1477 12.6974 17.1477H19.6153ZM18.7515 21.3032V18.8268H13.5612V21.3032H18.7515Z" fill="black"/>
</svg>
