<svg width="34" height="33" viewBox="0 0 34 33" fill="none" xmlns="http://www.w3.org/2000/svg">
<path d="M12.5998 0C9.50131 0 6.39948 1.18129 4.03969 3.54141C-0.679911 8.26168 -0.679885 15.9323 4.03969 20.6525C8.58448 25.1979 15.873 25.3655 20.6212 21.1568L32.2524 32.7895C32.5234 33.0684 33.0263 33.0705 33.2997 32.7939C33.5732 32.5174 33.5655 32.0145 33.2837 31.7465L21.6526 20.1138C25.8607 15.3658 25.7046 8.08684 21.1598 3.54141C18.8 1.18129 15.6982 0 12.5998 0ZM12.5998 1.45554C15.3197 1.45554 18.0375 2.49306 20.117 4.57288C24.2761 8.73251 24.2761 15.4614 20.117 19.621C15.958 23.7807 9.24154 23.7807 5.08249 19.621C0.923437 15.4614 0.923408 8.73254 5.08249 4.57288C7.162 2.49307 9.87976 1.45554 12.5998 1.45554ZM12.5998 4.03423C10.5336 4.03423 8.46522 4.82276 6.89305 6.39516C6.61427 6.66625 6.61213 7.16922 6.88859 7.44268C7.16504 7.71614 7.66788 7.70844 7.93584 7.42666C9.22774 6.13457 10.9137 5.50123 12.5998 5.50123C14.2858 5.50123 15.9718 6.13457 17.2637 7.42666C17.5316 7.70845 18.0345 7.71615 18.3109 7.44268C18.5874 7.16922 18.5852 6.66625 18.3065 6.39516C16.7343 4.82276 14.6659 4.03423 12.5998 4.03423Z" fill="black"/>
</svg>
