<svg width="49" height="33" viewBox="0 0 49 33" fill="none" xmlns="http://www.w3.org/2000/svg">
<path d="M1.82256 10.6239H12.0588V1.93914C12.0588 0.871022 12.8774 0 13.8813 0H47.1774C48.1813 0 49 0.871022 49 1.93914C49 8.03629 49 14.1334 49 20.2306C49 21.2987 48.1754 22.1697 47.1774 22.1697H36.9412V30.8545C36.9412 31.9226 36.1226 32.8 35.1187 32.8H1.82256C0.824634 32.8 0 31.9226 0 30.8545C0 24.7574 0 18.6666 0 12.5694C0 11.5013 0.818659 10.6239 1.82256 10.6239ZM12.9193 10.6239H35.1187C36.1226 10.6239 36.9412 11.5013 36.9412 12.5694V21.2542H47.1774C47.7033 21.2542 48.1395 20.7901 48.1395 20.2306V7.01268H12.9193V10.6239ZM48.1395 6.09715V4.5077H12.9193V6.09715H48.1395ZM48.1395 3.59217V1.93914C48.1395 1.37965 47.7033 0.915526 47.1774 0.915526H13.8813C13.3495 0.915526 12.9193 1.37965 12.9193 1.93914V3.59217H48.1395ZM0.860488 14.2161H36.0807V12.5694C36.0807 12.0036 35.6445 11.5458 35.1187 11.5458H1.82256C1.29671 11.5458 0.860488 12.0036 0.860488 12.5694V14.2161ZM36.0807 17.643H0.860488V30.8545C0.860488 31.4204 1.29671 31.8781 1.82256 31.8781H35.1187C35.6445 31.8781 36.0807 31.4204 36.0807 30.8545V17.643ZM36.0807 15.1316H0.860488V16.7274H36.0807V15.1316Z" fill="black"/>
<path d="M33.2304 27.5484C33.2304 29.2777 31.4198 30.3585 30.0335 29.4112C29.92 29.4875 29.8004 29.5511 29.6809 29.602C28.3304 30.1805 26.8306 29.1251 26.8306 27.5484C26.8306 25.978 28.3304 24.929 29.6809 25.5012C29.8004 25.552 29.92 25.6156 30.0335 25.6919C31.4198 24.7382 33.2304 25.8254 33.2304 27.5484ZM29.3822 28.6992C28.9758 27.9998 28.9758 27.1033 29.3822 26.3976L29.3463 26.3849C28.5754 26.0607 27.7269 26.6583 27.7269 27.5484C27.7269 28.4448 28.5814 29.0425 29.3463 28.7182L29.3822 28.6992ZM30.3203 26.6646C29.8662 27.1478 29.8662 27.9553 30.3203 28.4385C31.0613 29.2269 32.3341 28.661 32.3341 27.5484C32.3341 26.4421 31.0613 25.8763 30.3203 26.6646Z" fill="black"/>
<path d="M4.25457 22.7166H10.8337V25.4631H3.8064V22.7166H4.25457ZM9.93737 23.6702H4.70871V24.5095H9.93737V23.6702Z" fill="black"/>
<path d="M3.68091 29.2524H14.9868V30.168H3.68091V29.2524Z" fill="black"/>
<path d="M45.5521 18.3359C45.5521 20.0653 43.7355 21.1461 42.3492 20.1924C42.2416 20.2687 42.1221 20.3323 41.9966 20.3895C40.6521 20.9617 39.1462 19.9127 39.1462 18.3359C39.1462 16.7592 40.6521 15.7101 41.9966 16.2824C42.1221 16.3396 42.2416 16.4032 42.3492 16.4794C43.7355 15.5258 45.5521 16.613 45.5521 18.3359ZM41.6978 19.4867C41.2915 18.7873 41.2975 17.8845 41.6978 17.1852L41.6679 17.1724C40.8911 16.8482 40.0486 17.4458 40.0486 18.3359C40.0486 19.2324 40.8971 19.83 41.662 19.5058L41.6978 19.4867ZM42.636 17.4458C42.1818 17.9354 42.1818 18.7365 42.636 19.226C43.3829 20.0144 44.6498 19.4422 44.6498 18.3359C44.6498 17.2297 43.3829 16.6575 42.636 17.4458Z" fill="black"/>
</svg>
