<svg width="37" height="36" viewBox="0 0 37 36" fill="none" xmlns="http://www.w3.org/2000/svg">
<path d="M21.5191 18.9967C23.0356 17.9827 24.0188 16.2645 24.0188 14.324C24.0188 11.2388 21.4755 8.72705 18.3519 8.72705C15.2282 8.72705 12.685 11.2389 12.685 14.324C12.685 16.2626 13.6663 17.9825 15.1847 18.9967C11.3462 19.966 8.62524 22.6552 8.62524 25.8282C8.62524 26.2242 8.93727 26.4893 9.29462 26.4893C9.65197 26.4893 9.96399 26.1811 9.96399 25.8282C9.96399 22.5674 13.7118 19.9232 18.3539 19.9232C22.994 19.9232 26.7439 22.5676 26.7439 25.8282C26.7439 26.2242 27.0559 26.4893 27.4132 26.4893C27.7706 26.4893 28.0826 26.1811 28.0826 25.8282C28.0791 22.6982 25.3563 20.0091 21.5196 18.9967H21.5191ZM18.35 18.599C15.9845 18.599 14.0217 16.7035 14.0217 14.3242C14.0217 11.9449 15.941 10.0494 18.35 10.0494C20.759 10.0494 22.6783 11.9449 22.6783 14.3242C22.6783 16.7035 20.7155 18.599 18.35 18.599Z" fill="black"/>
<path d="M18.35 0C8.48697 0 0.5 7.88837 0.5 17.6296C0.5 27.3708 8.48697 35.2592 18.35 35.2592C28.213 35.2592 36.2 27.3708 36.2 17.6296C36.2 7.88837 28.213 0 18.35 0ZM18.35 33.892C9.24738 33.892 1.88427 26.5749 1.88427 17.6296C1.88427 8.68214 9.24738 1.36718 18.35 1.36718C27.4526 1.36718 34.8157 8.63939 34.8157 17.6296C34.8157 26.6198 27.4526 33.892 18.35 33.892Z" fill="black"/>
</svg>
